<svg xmlns="http://www.w3.org/2000/svg" viewBox="0 0 256 256" width="256" height="256">
<path d="M75 49 L81 67 L96 56 L92 75 L111 71 L98 85 L115 95 L95 96 L101 115 L85 103 L76 120 L72 101 L53 108 L64 90 L45 84 L65 76 L55 60 L72 68 Z" fill="#FF8EB5" transform="translate(0,0)"/>
<path d="M77 39 L82 56 L94 45 L92 62 L109 57 L99 72 L116 78 L100 84 L112 97 L94 95 L97 113 L83 102 L77 120 L71 102 L57 113 L60 95 L42 97 L54 84 L38 78 L55 72 L45 57 L62 62 L60 45 L72 56 Z" fill="#FF8EB5" transform="translate(0,0)"/>
<path d="M0 0 C2.5 0.25 2.5 0.25 4.5 2.25 C4.5 3.57 4.5 4.89 4.5 6.25 C5.28 6.04 6.07 5.84 6.88 5.62 C7.31 5.56 7.31 5.56 9.5 5.25 C10.16 5.91 10.82 6.57 11.5 7.25 C11.13 11.59 9.27 15.32 7.5 19.25 C8.82 19.25 10.14 19.25 11.5 19.25 C11.87 20.57 12.21 21.91 12.5 23.25 C13.49 23.25 14.48 23.25 15.5 23.25 C16.16 20.91 16.16 20.91 16.56 17.88 C17.3 12.45 17.3 12.45 19.5 10.25 C22 10.62 22 10.62 24.5 11.25 C26.5 11.25 26.5 11.25 29.5 9.25 C32.12 9.25 32.12 9.25 34.5 10.25 C35.5 13.06 35.5 13.06 35.5 16.25 C34.52 17.6 33.52 18.93 32.5 20.25 C32.81 23 32.81 23 33.5 25.25 C34.61 24.84 35.73 24.42 36.88 24 C62.14 15.81 86.8 15.26 110.94 27.06 C129.38 36.63 143.13 50.85 150 70.62 C155.32 91.52 151.21 112 140.5 130.25 C138.36 133.45 136.03 136.35 133.5 139.25 C132.99 139.9 132.49 140.55 131.96 141.21 C117.75 158.85 93.57 169.64 71.5 172.25 C67 172.51 62.51 172.53 58 172.5 C56.87 172.51 55.73 172.52 54.57 172.52 C31.22 172.47 10.85 164.53 -5.73 148.1 C-6.64 147.16 -7.56 146.22 -8.5 145.25 C-9.21 144.53 -9.92 143.8 -10.65 143.06 C-23.4 129.28 -30.34 110.78 -29.91 92.09 C-28.8 81.78 -24.94 72.41 -18.5 64.25 C-19.15 63.98 -19.8 63.71 -20.47 63.44 C-21.14 63.05 -21.81 62.65 -22.5 62.25 C-23 59.25 -23 59.25 -22.5 56.25 C-20.5 55 -20.5 55 -18.5 54.25 C-18.5 53.59 -18.5 52.93 -18.5 52.25 C-19.49 51.92 -20.48 51.59 -21.5 51.25 C-21.24 49.17 -21.01 47.76 -19.5 46.25 C-17.21 46.01 -14.93 45.87 -12.63 45.73 C-10.5 45.25 -10.5 45.25 -8.5 42.25 C-8.12 40.59 -7.77 38.93 -7.5 37.25 C-14.12 36 -14.12 36 -17.5 38.25 C-20.06 38.75 -20.06 38.75 -22.5 38.25 C-23.21 36.26 -23.87 34.26 -24.5 32.25 C-25.37 31.73 -26.23 31.22 -27.12 30.69 C-27.91 30.21 -28.69 29.74 -29.5 29.25 C-29.94 26.69 -29.94 26.69 -29.5 24.25 C-28.84 23.59 -28.18 22.93 -27.5 22.25 C-26.91 22.35 -26.91 22.35 -23.94 22.88 C-22.8 23 -21.67 23.12 -20.5 23.25 C-19.81 21.38 -19.81 21.38 -19.5 19.25 C-17.69 18.19 -17.69 18.19 -15.5 18.25 C-13.44 20.5 -13.44 20.5 -11.5 23.25 C-9.38 25.63 -8.63 26.21 -5.5 27.25 C-5.4 26.42 -5.29 25.6 -5.19 24.75 C-4.96 23.92 -4.73 23.1 -4.5 22.25 C-3.51 22.25 -2.52 22.25 -1.5 22.25 C-1.62 20.5 -1.62 20.5 -2.5 18.25 C-3.49 17.61 -4.48 16.97 -5.5 16.31 C-8.5 14.25 -8.5 14.25 -9.5 11.62 C-9.5 9.25 -9.5 9.25 -7.5 7.25 C-6.51 7.25 -5.52 7.25 -4.5 7.25 C-4.54 6.47 -4.58 5.68 -4.62 4.88 C-4.45 1.28 -3.59 0.36 0 0 Z" fill="#92ED94" transform="translate(69.5,47.75)"/>
<path d="M0 0 C2.75 0.02 2.75 0.02 5 1 C5.43 5.31 3.49 7.96 1 11.25 C-0.32 12.84 -1.65 14.43 -3 16 C-3.69 16.84 -4.37 17.69 -5.08 18.55 C-10.93 25.48 -17.46 31.31 -26.27 34 C-26.72 34 -26.72 34 -29 34 C-30.12 31.74 -30.12 31.74 -30 29 C-28.41 27.45 -28.41 27.45 -26.06 26.12 C-21.84 23.59 -18.33 20.77 -14.73 17.42 C-13 16 -13 16 -10 15 C-9.05 13.3 -9.05 13.3 -8 11 C-6.77 9.03 -5.5 7.1 -4.19 5.19 C-3.52 4.19 -2.85 3.19 -2.17 2.17 C-1.45 1.45 -0.74 0.74 0 0 Z" fill="#0D200F" transform="translate(199,162)"/>
<path d="M0 0 C3.26 0.49 5.7 1.99 8 4.3 C8.59 11.38 8.59 11.38 6.13 15.24 C3.42 17.86 2.47 18.24 -1.31 18.74 C-5 18.3 -5 18.3 -8 15.86 C-10.51 12.39 -10.25 9.47 -9.68 5.35 C-7.99 0.31 -5.09 -0.18 0 0 Z" fill="#09150A" transform="translate(102.99609375,142.69921875)"/>
<path d="M0 0 C2.78 1.38 3.86 2.55 6 5 C6.77 9.32 6.53 11.19 4.12 14.88 C1.37 17.63 0.55 17.95 -3.38 18.31 C-7 18 -7 18 -9.38 16.12 C-11.95 12.75 -12.41 10.27 -12.34 5.98 C-12 4 -12 4 -9.94 1.5 C-6.21 -0.4 -4.14 -0.65 0 0 Z" fill="#0A160C" transform="translate(177,124)"/>
<path d="M0 0 C0.74 0.08 1.49 0.16 2.25 0.25 C2.52 2.49 2.52 2.49 2.25 5.25 C0.42 7.42 0.42 7.42 -2 9.44 C-2.79 10.11 -3.58 10.79 -4.39 11.48 C-8.47 14.54 -11.17 15.54 -16.31 15.56 C-17.26 15.58 -18.21 15.6 -19.19 15.61 C-21.75 15.25 -21.75 15.25 -23.57 13.9 C-24.75 12.25 -24.75 12.25 -25.06 9.56 C-24.63 8.8 -24.2 8.04 -23.75 7.25 C-21.26 6.99 -18.89 7.14 -16.39 7.26 C-12.43 7.25 -10.2 6.18 -6.75 4.25 C-6.05 3.53 -5.35 2.81 -4.62 2.06 C-2.75 0.25 -2.75 0.25 0 0 Z" fill="#0E2211" transform="translate(151.75,151.75)"/>
<path d="M77 39 L82 56 L94 45 L92 62 L109 57 L99 72 L116 78 L100 84 L112 97 L94 95 L97 113 L83 102 L77 120 L71 102 L57 113 L60 95 L42 97 L54 84 L38 78 L55 72 L45 57 L62 62 L60 45 L72 56 Z" fill="#FF8EB5" transform="translate(0,0)"/>
</svg>
