<svg xmlns="http://www.w3.org/2000/svg" viewBox="0 0 256 256" width="256" height="256">
<path d="M0 0 C0.76 0.69 1.52 1.38 2.3 2.09 C3.09 2.79 3.87 3.49 4.67 4.21 C10.34 9.56 14.47 15.32 18.3 22.09 C18.57 22.55 18.57 22.55 19.93 24.86 C28.42 40.37 30.85 58.45 26.8 75.65 C23.05 88.09 17.15 99.51 8.3 109.09 C7.89 109.54 7.89 109.54 5.81 111.82 C-11.71 130.21 -37.03 142.63 -62.6 143.29 C-90 143.62 -115.15 138.79 -135.51 119.09 C-151.42 102.78 -159.99 81.45 -159.94 58.81 C-159.69 41.03 -151.97 26.18 -139.33 13.77 C-130.72 5.9 -130.72 5.9 -124.07 6.15 C-120.42 5.87 -119.04 5.42 -116.35 2.86 C-115.58 1.93 -114.8 0.99 -114.01 0.03 C-104.86 -11.01 -90.12 -16.92 -76.04 -18.5 C-48.92 -20.92 -21.48 -18.34 0 0 Z" fill="#93AED9" transform="translate(192.6953125,60.91015625)"/>
<path d="M0 0 C1.88 0 1.88 0 4 1 C4.52 1.99 5.03 2.98 5.56 4 C8 7 8 7 10.66 7.48 C12.65 7.57 14.65 7.62 16.64 7.6 C17.03 7.67 17.03 7.67 19 8 C19.96 9.88 19.96 9.88 20 12 C19.34 12.78 18.68 13.57 18 14.38 C16 17 16 17 16.19 19.88 C16.46 20.91 16.72 21.94 17 23 C17.81 26.81 17.81 26.81 18 30 C14.16 31.74 10.95 30.33 7.12 29.18 C6.42 29.12 5.72 29.06 5 29 C3.35 30.45 3.35 30.45 2 32 C1.34 32 0.68 32 0 32 C0 32.66 0 33.32 0 34 C-2.47 34.36 -2.47 34.36 -5 34 C-5.5 31.52 -5.5 31.52 -5.44 28.25 C-5.56 24.92 -5.56 24.92 -6 22 C-9 19.56 -9 19.56 -12 18 C-13.25 15.38 -13.25 15.38 -13 13 C-9.46 11.27 -6.96 11 -3 11 C-2.46 9.1 -2.46 9.1 -2.38 6.62 C-2.19 2.19 -2.19 2.19 0 0 Z" fill="#F79DA1" transform="translate(170,64)"/>
<path d="M0 0 C1.32 0 2.64 0 4 0 C4.78 6.67 0.1 11.39 -3.73 16.41 C-10.06 24.36 -18.5 32.07 -28 36 C-29.32 36 -30.64 36 -32 36 C-31.82 33.71 -31.82 33.71 -31 31 C-28.74 29.19 -28.74 29.19 -25.88 27.56 C-15.02 21.04 -7.17 12.66 -1.2 1.4 C-0.81 0.94 -0.41 0.48 0 0 Z" fill="#080C14" transform="translate(200,142)"/>
<path d="M0 0 C2.69 -0.12 2.69 -0.12 5 1 C5.08 4.68 4.21 6.69 2.19 9.75 C-1.24 13.27 -2.93 13.9 -7.88 14.38 C-12.19 14.25 -14.76 12.92 -18 10 C-18.88 7.25 -18.88 7.25 -19 5 C-16.69 4.31 -16.69 4.31 -14 4 C-13 5 -12 6 -11 7 C-7.84 7.39 -5.89 7.64 -3.25 5.75 C-2 4 -2 4 -1.12 1.75 C-0.75 1.17 -0.38 0.59 0 0 Z" fill="#0B1017" transform="translate(96,124)"/>
<path d="M0 0 C2.06 0.06 2.06 0.06 4 1 C4.69 4.77 4.31 6.51 2.25 9.75 C-1.23 13.23 -2.9 13.89 -7.88 14.38 C-12.19 14.25 -14.76 12.92 -18 10 C-18.88 7.25 -18.88 7.25 -19 5 C-16.56 4.31 -16.56 4.31 -14 4 C-13.67 4.99 -13.34 5.98 -13 7 C-9.62 7.77 -6.38 7.73 -3 7 C-1.44 4.06 -1.44 4.06 -1 1 C-0.67 0.67 -0.34 0.34 0 0 Z" fill="#080B14" transform="translate(171,109)"/>
<path d="M0 0 C0.56 0.37 1.11 0.74 1.69 1.12 C2 3.81 2 3.81 0.69 7.12 C-4.48 11.55 -9.45 14.26 -16.31 14.31 C-16.75 14.32 -16.75 14.32 -18.94 14.36 C-21.31 14.12 -21.31 14.12 -24.31 12.12 C-24.36 10.04 -24.36 10.04 -23.31 8.12 C-20.77 7.62 -20.77 7.62 -17.56 7.56 C-12.87 7.46 -10.15 6.89 -6.31 4.12 C-5.63 3.38 -4.95 2.64 -4.25 1.88 C-2.31 0.12 -2.31 0.12 0 0 Z" fill="#0B1019" transform="translate(139.3125,130.875)"/>
</svg>
